<svg width="200" height="200" viewBox="0 0 200 200" fill="none" xmlns="http://www.w3.org/2000/svg">
<circle cx="100" cy="100" r="100" fill="#FFC107"/>
<path d="M104.513 186.693C62.6055 186.702 31.7932 170.455 32.1317 110.034C51.8721 148.857 68.1909 142.474 68.9805 135.367C69.9675 126.484 40.9292 109.092 48.582 90.9514C57.4652 69.895 59.4393 57.0637 42.0019 52.1286C57.7943 52.1286 64.0454 53.4446 67.9935 73.185C69.9292 82.8636 72.5996 101.48 88.721 113.653C81.8118 103.783 76.5477 101.151 78.1927 89.9644C80.6984 72.9258 86.6383 77.5247 88.392 59.6957C90.366 39.6263 79.1797 36.0072 89.708 13.3057C89.708 29.098 102.868 33.0461 106.158 53.4446C108.589 68.5124 112.08 97.2026 118.99 94.8995C124.441 93.0825 117.345 80.7522 123.267 65.2889C126.396 57.1182 135.44 43.5744 152.548 44.5614C143.007 46.2064 134.453 55.7476 136.427 72.198C137.886 84.355 146.955 80.4232 146.955 96.5446C146.955 112.666 138.072 122.405 147.942 126.484C155.244 129.502 157.155 102.796 174.592 97.8606C162.09 111.679 174.044 127.088 170.644 140.961C164.064 167.808 148.622 186.683 104.513 186.693Z" fill="#B71C1C"/>
<path d="M76.8554 87.4019L22.5693 87.8227C30.5649 110.126 65.914 116.859 78.9595 116.859C106.734 135.796 89.0592 159.783 72.2263 159.783V172.829H139.558C139.558 172.829 139.348 170.725 139.348 160.204C109.68 159.783 103.788 110.547 177.432 93.7142V82.7728H76.8554V87.4019Z" fill="black" stroke="black"/>
</svg>
